<svg xmlns="http://www.w3.org/2000/svg" width="32" height="32" viewBox="0 0 32 32">
  <defs>
    <linearGradient id="bg" x1="0" y1="0" x2="1" y2="1">
      <stop offset="0%" stop-color="#210140"/>
      <stop offset="100%" stop-color="#1a1a1b"/>
    </linearGradient>
    <linearGradient id="r" x1="0" y1="0" x2="1" y2="1">
      <stop offset="0%" stop-color="#F16363"/>
      <stop offset="100%" stop-color="#9C27B0"/>
    </linearGradient>
  </defs>
  <rect width="32" height="32" rx="6" fill="url(#bg)"/>
  <!-- Bold angular R — optimised for 16px readability -->
  <path d="M9 26V6h8c2.2 0 3.8.6 4.8 1.7 1 1.1 1.5 2.5 1.5 4.1 0 1.5-.4 2.7-1.2 3.6-.8.9-1.9 1.5-3.3 1.7L24.5 26H20l-5-8.4H13V26H9zm4-12h3.6c1 0 1.7-.3 2.2-.8.5-.5.7-1.1.7-1.9s-.3-1.4-.8-1.9c-.5-.5-1.2-.7-2.1-.7H13v5.3z" fill="url(#r)"/>
  <!-- Speed line -->
  <rect x="8" y="28" width="16" height="2" rx="1" fill="#F16363" opacity="0.7"/>
</svg>
